# xmcd
#
# Track frame offsets:
#	150
#	18332
#	32772
#	51290
#	68568
#	90079
#	111840
#	130431
#	147283
#	163426
#	181202
#	199140
#	215546
#	230703
#	249018
#	263870
#	277435
#
# Disc length: 3948 seconds
#
# Revision: 1
# Processed by: cddbd v1.5.2PL0 Copyright (c) Steve Scherf et al.
# Submitted via: audiograbber 1.83.01
#
DISCID=fc0f6a11
DTITLE=Millie Jackson - On The Soul Country Side
DYEAR=2014
DGENRE=Soul
TTITLE0=Rose Coloured Glasses
TTITLE1=Here You Come Again
TTITLE2=Angel In Your Arms
TTITLE3=Pick Me Up On Your Way Down
TTITLE4=You Needed Me (with Isaac Hayes)
TTITLE5=If You're Not Back In Love By Monday
TTITLE6=I Can't Stop Loving You
TTITLE7=Loving Arms
TTITLE8=Till I Get It Right
TTITLE9=Standing In Your Line
TTITLE10=You Never Cross My Mind (with Isaac Hayes)
TTITLE11=I Wish I Could Hurt That Way Again
TTITLE12=Cheatin' Is
TTITLE13=Sweet Music Man
TTITLE14=I Still Love You (You Still Love Me)
TTITLE15=Anybody That Don't Like Millie Jackson
TTITLE16=Black Bitch Crazy aka Redneck Crazy
EXTD=
EXTT0=
EXTT1=
EXTT2=
EXTT3=
EXTT4=
EXTT5=
EXTT6=
EXTT7=
EXTT8=
EXTT9=
EXTT10=
EXTT11=
EXTT12=
EXTT13=
EXTT14=
EXTT15=
EXTT16=
PLAYORDER=
